<svg width="49" height="21" viewBox="0 0 49 21" fill="none" xmlns="http://www.w3.org/2000/svg">
<path d="M24.267 0.652344L21.8851 5.16635L19.5801 9.68035C21.232 12.8498 22.6919 15.5966 24.3246 18.7084L29.0691 9.68035L26.6296 5.16635L24.267 0.652344Z" fill="white"/>
<path d="M48.4379 16.0386L48.2074 15.9042L47.9769 15.7505L47.7271 15.616L47.4966 15.4624L47.2469 15.3279L47.0164 15.1934L46.7859 15.059L46.5362 14.9245L46.2865 14.7901L46.056 14.6748L45.8063 14.5404L45.5566 14.4059L45.3261 14.2714L45.0764 14.1562L44.8267 14.0217L44.5769 13.9065L44.3272 13.7912L44.0775 13.676L43.8278 13.5415L43.6934 13.4839L41.4844 18.3052L41.5804 18.3436L41.8109 18.4397L42.0222 18.5549L42.2527 18.6702L42.464 18.7662L42.6753 18.8815L42.9058 18.9967L43.1171 19.112L43.3284 19.208L43.5397 19.3233L43.7702 19.4577L43.9815 19.573L44.1928 19.6882L44.4041 19.8035L44.6154 19.9187L44.8267 20.0532L45.038 20.1685L45.2492 20.2837L45.4605 20.4182L45.6718 20.5526L45.8639 20.6679L48.6299 16.1539L48.4379 16.0386Z" fill="white"/>
<path d="M38.119 11.3322L37.8501 11.2554L37.5812 11.1785L37.3123 11.0825L37.0434 11.0057L36.7744 10.948L36.4863 10.8712L36.2174 10.7944L35.9485 10.7175L35.6796 10.6599L35.3914 10.5831L35.1225 10.5062L34.8536 10.4486L34.5655 10.391L34.2965 10.3334L34.0084 10.2565L33.7395 10.1989L33.4514 10.1605L33.1825 10.1029L33.0288 10.0645L32.0684 15.27L32.1836 15.2892L32.4333 15.3468L32.683 15.3852L32.9135 15.4428L33.1632 15.5005L33.413 15.5581L33.6627 15.6157L33.8932 15.6733L34.1429 15.7118L34.3926 15.7886L34.6231 15.8462L34.8728 15.9038L35.1225 15.9807L35.353 16.0383L35.5835 16.0959L35.8332 16.1728L36.0637 16.2496L36.3134 16.3072L36.5439 16.3841L36.7937 16.4609L36.8897 16.4993L38.484 11.4475L38.388 11.4283L38.119 11.3322Z" fill="white"/>
<path d="M15.504 10.0451L15.2159 10.1027L14.9278 10.1603L14.6589 10.1988L14.3707 10.2564L14.1018 10.3332L13.8137 10.3908L13.5448 10.4485L13.2566 10.5061L12.9877 10.5829L12.7188 10.6598L12.4499 10.7174L12.1617 10.7942L11.8928 10.8711L11.6239 10.9479L11.355 11.0055L11.0861 11.0823L10.8172 11.1784L10.529 11.2552L10.2793 11.3321L10.1641 11.3705L11.7584 16.4223L11.8352 16.3839L12.0849 16.3071L12.3154 16.2494L12.5459 16.1726L12.7956 16.0958L13.0453 16.0381L13.2758 15.9805L13.5256 15.9037L13.7561 15.8461L14.0058 15.7884L14.2363 15.7116L14.486 15.6732L14.7357 15.6156L14.9854 15.5579L15.2159 15.5003L15.4656 15.4427L15.7153 15.3851L15.965 15.3466L16.2147 15.289L16.4452 15.2506L16.5797 15.2314L15.6193 10.0259L15.504 10.0451Z" fill="white"/>
<path d="M4.84055 13.4261L4.59084 13.5414L4.34113 13.6758L4.09141 13.7911L3.8417 13.9063L3.59199 14.0216L3.34228 14.156L3.09257 14.2713L2.84286 14.4057L2.61236 14.5402L2.36265 14.6747L2.11294 14.7899L1.88243 14.9244L1.63272 15.0588L1.40222 15.1933L1.15251 15.3278L0.922009 15.4622L0.672298 15.6159L0.441796 15.7503L0.211294 15.904L0 16.0193L2.78524 20.5333L2.95811 20.418L3.16941 20.2836L3.36149 20.1683L3.57278 20.0531L3.78408 19.9186L3.99537 19.8033L4.22587 19.6881L4.43717 19.5728L4.64846 19.4576L4.85976 19.3231L5.07105 19.2079L5.28234 19.1118L5.51284 18.9966L5.72414 18.8813L5.93543 18.7661L6.16593 18.67L6.37723 18.5548L6.60773 18.4395L6.81902 18.3435L7.04953 18.2474L7.16478 18.1898L4.9558 13.3877L4.84055 13.4261Z" fill="white"/>
</svg>
